<svg xmlns="http://www.w3.org/2000/svg" xmlns:xlink="http://www.w3.org/1999/xlink" xmlns:fi="http://pattern.flaticon.com/" x="0" y="0" width="700" height="350" viewBox="0 0 700 350"><rect x="0px" y="0px" width="100%" height="100%" opacity="0.7" fill="#dddddd"/><defs><g transform="matrix(0.1171875 0 0 0.1171875 205 207)" id="L1_1"><path d="M 270 255 C 270 288.898438 235.5 330 195 330 C 189.902344 330 184.800781 329.699219 180 328.800781 C 149.398438 324 125.699219 304.800781 120.902344 279.300781 C 119.398438 271.199219 124.800781 263.097656 132.898438 261.597656 C 141 260.097656 148.800781 265.5 150.300781 273.601562 C 152.402344 284.699219 164.398438 294.300781 180 298.199219 C 184.800781 299.398438 189.902344 300 195 300 C 219.300781 300 240 272.398438 240 255 C 240 250.5 240 240 195 240 C 186.601562 240 180 233.398438 180 225 C 180 216.597656 186.601562 210 195 210 C 213.601562 210 270 210 270 255 Z M 270 255 " fill="#68544f" fill-opacity="1" stroke="none"/><path d="M 270 255 C 270 288.898438 235.5 330 195 330 C 189.902344 330 184.800781 329.699219 180 328.800781 L 180 298.199219 C 184.800781 299.398438 189.902344 300 195 300 C 219.300781 300 240 272.398438 240 255 C 240 250.5 240 240 195 240 C 186.597656 240 180 233.398438 180 225 C 180 216.597656 186.597656 210 195 210 C 213.601562 210 270 210 270 255 Z M 270 255 " fill="#53433f" fill-opacity="1" stroke="none"/><path d="M 324.300781 180 L 315 198.601562 C 302.101562 224.097656 276.597656 240 247.800781 240 L 195 240 C 189.601562 240 184.800781 240.898438 180 242.699219 C 162.597656 248.699219 150 265.5 150 285 L 150 376 C 150 400.898438 129.902344 421 105 421 L 45 421 C 20.097656 421 0 400.898438 0 376 L 0 326.699219 C 0 295.800781 12 266.699219 33.898438 245.097656 C 47.398438 231.296875 51 210.300781 42.300781 192.898438 L 35.699219 180 L 165 150 L 180 152.699219 Z M 324.300781 180 " fill="#b35f49" fill-opacity="1" stroke="none"/><path d="M 324.300781 180 L 315 198.601562 C 302.101562 224.097656 276.597656 240 247.800781 240 L 195 240 C 189.601562 240 184.800781 240.898438 180 242.699219 L 180 152.699219 Z M 324.300781 180 " fill="#99503d" fill-opacity="1" stroke="none"/><path d="M 300 60 L 330 180 L 376 180 C 381.683594 180 386.867188 176.792969 389.417969 171.710938 L 449.417969 51.710938 Z M 300 60 " fill="#8ebac5" fill-opacity="1" stroke="none"/><path d="M 105 120 L 75 120 C 50.1875 120 30 99.8125 30 75 C 30 66.710938 36.710938 60 45 60 C 53.289062 60 60 66.710938 60 75 C 60 83.277344 66.722656 90 75 90 L 105 90 C 113.289062 90 120 96.710938 120 105 C 120 113.289062 113.289062 120 105 120 Z M 105 120 " fill="#53433f" fill-opacity="1" stroke="none"/><path d="M 466 60 C 457.710938 60 451 53.289062 451 45 L 451 15 C 451 6.710938 457.710938 0 466 0 C 474.289062 0 482 6.710938 482 15 L 482 45 C 482 53.289062 474.289062 60 466 60 Z M 466 60 " fill="#53433f" fill-opacity="1" stroke="none"/><path d="M 90 345 C 90 353.285156 83.285156 360 75 360 C 66.714844 360 60 353.285156 60 345 C 60 336.714844 66.714844 330 75 330 C 83.285156 330 90 336.714844 90 345 Z M 90 345 " fill="#68544f" fill-opacity="1" stroke="none"/><path d="M 497 90 L 330 90 L 300 60 L 330 30 L 497 30 C 505.285156 30 512 36.714844 512 45 L 512 75 C 512 83.285156 505.285156 90 497 90 Z M 497 90 " fill="#a8d3d8" fill-opacity="1" stroke="none"/><path d="M 91.5 90 L 75 90 C 71.101562 90 67.199219 91.5 64.5 94.5 L 34.5 124.5 C 31.5 127.199219 30 131.101562 30 135 L 30 165 C 30 167.398438 30.601562 169.5 31.5 171.300781 L 31.5 171.597656 L 35.699219 180 L 165 180 Z M 91.5 90 " fill="#68544f" fill-opacity="1" stroke="none"/><path d="M 330 30 L 180 30 L 150 90 L 150 120 L 180 180 L 330 180 L 330 120 L 300 105 L 330 90 Z M 330 30 " fill="#c6e2e7" fill-opacity="1" stroke="none"/><path d="M 150 90 L 330 90 L 330 120 L 150 120 Z M 150 90 " fill="#a8d3d8" fill-opacity="1" stroke="none"/><path d="M 180 30 L 180 180 L 165 180 C 123.601562 180 90 146.398438 90 105 C 90 99.898438 90.601562 94.800781 91.5 90 C 98.402344 55.800781 128.699219 30 165 30 Z M 180 30 " fill="#deecf1" fill-opacity="1" stroke="none"/></g><g transform="matrix(0.11718744039535522 0 0 0.11718744039535522 149 41)" id="L1_5"><path d="M 129.832031 415.789062 L 108.820312 467.121094 L 76.699219 498.941406 C 59.289062 516.351562 30.769531 516.351562 13.058594 498.941406 C -4.351562 481.230469 -4.351562 452.714844 13.058594 435.300781 L 44.878906 403.179688 L 96.210938 382.167969 L 113.019531 398.980469 Z M 129.832031 415.789062 " fill="#c6715a" fill-opacity="1" stroke="none"/><path d="M 113.019531 398.976562 L 129.832031 415.789062 L 108.820312 467.121094 L 76.699219 498.941406 C 59.289062 516.351562 30.769531 516.351562 13.058594 498.941406 Z M 113.019531 398.976562 " fill="#99503d" fill-opacity="1" stroke="none"/><path d="M 224.492188 351.148438 L 108.820312 467.121094 L 44.878906 403.179688 L 160.851562 287.507812 C 166.855469 281.503906 176.164062 281.503906 182.167969 287.507812 L 224.492188 329.832031 C 230.496094 335.835938 230.496094 345.144531 224.492188 351.148438 Z M 224.492188 351.148438 " fill="#b35f49" fill-opacity="1" stroke="none"/><path d="M 224.492188 329.832031 C 230.496094 335.835938 230.496094 345.144531 224.492188 351.148438 L 108.820312 467.121094 L 77 435.300781 L 203.480469 308.820312 Z M 224.492188 329.832031 " fill="#804231" fill-opacity="1" stroke="none"/><path d="M 455.039062 56.960938 C 378.789062 -18.988281 255.113281 -18.988281 178.863281 56.960938 C 102.914062 133.210938 102.914062 256.886719 178.863281 333.136719 C 255.109375 409.085938 378.789062 409.085938 455.039062 333.136719 C 530.988281 256.886719 530.988281 133.210938 455.039062 56.960938 Z M 455.039062 56.960938 " fill="#68544f" fill-opacity="1" stroke="none"/><path d="M 455.039062 333.136719 C 378.789062 409.085938 255.113281 409.085938 178.863281 333.136719 L 455.039062 56.960938 C 530.988281 133.210938 530.988281 256.886719 455.039062 333.136719 Z M 455.039062 333.136719 " fill="#53433f" fill-opacity="1" stroke="none"/><path d="M 412.410156 99.589844 C 359.878906 46.753906 274.023438 46.753906 221.492188 99.589844 C 168.65625 152.121094 168.65625 237.976562 221.492188 290.511719 C 274.023438 343.34375 359.878906 343.34375 412.410156 290.511719 C 465.246094 237.976562 465.246094 152.121094 412.410156 99.589844 Z M 412.410156 99.589844 " fill="#bdfdff" fill-opacity="1" stroke="none"/><path d="M 412.410156 290.507812 C 359.878906 343.34375 274.023438 343.34375 221.492188 290.507812 L 412.410156 99.589844 C 465.246094 152.121094 465.246094 237.976562 412.410156 290.507812 Z M 412.410156 290.507812 " fill="#9bfbff" fill-opacity="1" stroke="none"/></g><g transform="matrix(0.11718742549419403 0 0 0.11718742549419403 20 240)" id="L1_7"><path d="M 180 392 L 75 392 C 66.710938 392 60 398.710938 60 407 C 60 415.292969 66.710938 422 75 422 L 180 422 L 210 407 Z M 180 392 " fill="#b5baf3" fill-opacity="1" stroke="none"/><path d="M 450 285 C 450 376.199219 376.199219 452 285 452 L 240 482 L 180 452 L 180 392 L 285 392 C 342.902344 392 390 342.898438 390 285 C 390 227.101562 342.902344 180 285 180 L 180 180 L 180 120 L 285 120 C 376.199219 120 450 193.800781 450 285 Z M 450 285 " fill="#c6e2e7" fill-opacity="1" stroke="none"/><path d="M 450 285 C 450 376.199219 376.199219 452 285 452 L 240 482 L 210 467 L 210 392 L 285 392 C 342.902344 392 390 342.898438 390 285 C 390 227.101562 342.902344 180 285 180 L 210 180 L 210 120 L 285 120 C 376.199219 120 450 193.800781 450 285 Z M 450 285 " fill="#a8d3d8" fill-opacity="1" stroke="none"/><path d="M 300.871094 5.621094 L 319.75 28.933594 C 325.035156 35.464844 324.0625 44.746094 317.53125 50.03125 L 235.933594 116.109375 L 198.175781 69.480469 L 279.773438 3.402344 C 286.300781 -1.882812 295.582031 -0.910156 300.871094 5.621094 Z M 300.871094 5.621094 " fill="#725d57" fill-opacity="1" stroke="none"/><path d="M 310.308594 17.277344 L 319.75 28.933594 C 325.035156 35.464844 324.0625 44.746094 317.53125 50.03125 L 235.933594 116.109375 L 217.054688 92.796875 Z M 310.308594 17.277344 " fill="#68544f" fill-opacity="1" stroke="none"/><path d="M 263.679688 55.039062 C 276.707031 71.125 282.074219 91.097656 280.078125 110.085938 C 278.082031 129.074219 268.679688 147.496094 252.59375 160.523438 L 124.363281 264.359375 L 29.96875 147.789062 L 158.195312 43.949219 C 190.371094 17.894531 237.625 22.863281 263.679688 55.039062 Z M 263.679688 55.039062 " fill="#deecf1" fill-opacity="1" stroke="none"/><path d="M 263.679688 55.039062 C 276.707031 71.125 282.074219 91.097656 280.078125 110.085938 C 278.082031 129.074219 268.679688 147.496094 252.59375 160.523438 L 124.363281 264.359375 L 77.164062 206.074219 Z M 263.679688 55.039062 " fill="#c6e2e7" fill-opacity="1" stroke="none"/><path d="M 53.28125 128.910156 L 147.679688 245.480469 C 158.0625 258.304688 156.066406 277.289062 143.242188 287.675781 C 130.421875 298.058594 111.433594 296.0625 101.050781 283.238281 L 6.652344 166.667969 C -3.730469 153.84375 -1.734375 134.855469 11.085938 124.472656 C 23.910156 114.089844 42.898438 116.085938 53.28125 128.910156 Z M 53.28125 128.910156 " fill="#725d57" fill-opacity="1" stroke="none"/><path d="M 53.851562 224.953125 L 100.480469 187.195312 L 147.679688 245.480469 C 158.0625 258.304688 156.066406 277.289062 143.246094 287.675781 C 130.421875 298.058594 111.433594 296.0625 101.050781 283.238281 Z M 53.851562 224.953125 " fill="#68544f" fill-opacity="1" stroke="none"/><path d="M 360 452 L 60 452 C 43.5 452 30 465.5 30 482 L 30 497 C 30 505.402344 36.601562 512 45 512 L 375 512 C 383.402344 512 390 505.402344 390 497 L 390 482 C 390 465.5 376.5 452 360 452 Z M 360 452 " fill="#68544f" fill-opacity="1" stroke="none"/><path d="M 390 482 L 390 497 C 390 505.402344 383.402344 512 375 512 L 210 512 L 210 452 L 360 452 C 376.5 452 390 465.5 390 482 Z M 390 482 " fill="#53433f" fill-opacity="1" stroke="none"/></g><g transform="matrix(0.11718727648258209 0 0 0.11718727648258209 -14 44.99999994140637)" id="L1_8"><path d="M 485.867188 102.003906 L 505.964844 87.007812 C 509.5625 84.304688 511.664062 80.40625 511.960938 76.207031 C 512.261719 71.707031 510.765625 67.507812 507.460938 64.507812 L 446.472656 4.519531 C 441.371094 -0.582031 433.574219 -1.480469 427.574219 2.417969 C 378.082031 35.714844 313.890625 35.714844 264.398438 2.417969 C 262 0.617188 259 0.0195312 256 0.0195312 C 253 0.0195312 250 0.617188 247.601562 2.417969 C 198.109375 35.714844 133.917969 35.714844 84.425781 2.417969 C 78.425781 -1.480469 70.628906 -0.582031 65.527344 4.519531 L 4.539062 64.507812 C 1.238281 67.507812 -0.261719 71.707031 0.0390625 76.207031 C 0.335938 80.40625 2.4375 84.308594 6.035156 87.007812 L 26.132812 102.003906 C 75.625 138.597656 64.925781 174.691406 40.332031 233.484375 C 14.648438 294.742188 -17.34375 365.796875 65.226562 447.753906 C 100.023438 481.949219 135.417969 482.25 166.613281 482.25 C 195.40625 482.546875 220.304688 482.546875 245.5 507.445312 C 248.199219 510.445312 252.097656 511.945312 256 511.945312 C 259.898438 511.945312 263.796875 510.445312 266.496094 507.445312 C 291.695312 482.546875 316.589844 482.546875 345.386719 482.25 C 376.582031 482.25 411.976562 481.949219 446.769531 447.753906 C 527.457031 367.664062 497.5625 292.875 472.667969 233.484375 C 448.070312 174.691406 436.375 138.597656 485.867188 102.003906 Z M 485.867188 102.003906 " fill="#ffda44" fill-opacity="1" stroke="none"/><path d="M 472.667969 233.484375 C 497.566406 292.875 527.460938 367.664062 446.773438 447.753906 C 411.976562 481.949219 376.582031 482.25 345.386719 482.25 C 316.59375 482.546875 291.695312 482.546875 266.5 507.445312 C 263.800781 510.445312 259.902344 511.945312 256 511.945312 L 256 0.0195312 C 259 0.0195312 262 0.621094 264.402344 2.421875 C 313.890625 35.714844 378.082031 35.714844 427.574219 2.421875 C 433.574219 -1.480469 441.375 -0.578125 446.472656 4.519531 L 507.464844 64.511719 C 510.765625 67.511719 512.261719 71.710938 511.964844 76.210938 C 511.664062 80.410156 509.5625 84.308594 505.964844 87.007812 L 485.867188 102.007812 C 436.375 138.597656 448.070312 174.691406 472.667969 233.484375 Z M 472.667969 233.484375 " fill="#eebf00" fill-opacity="1" stroke="none"/><path d="M 416.175781 256.578125 C 399.078125 215.484375 375.382812 158.394531 403.277344 104.703125 C 405.976562 99.605469 405.679688 93.605469 402.078125 88.804688 C 398.480469 84.304688 392.78125 81.90625 387.082031 83.105469 C 345.386719 91.503906 301.292969 87.007812 262 69.609375 C 260.199219 68.707031 258.101562 68.410156 256 68.410156 C 253.902344 68.410156 251.800781 68.707031 250 69.609375 C 210.707031 87.007812 166.613281 91.503906 124.921875 83.105469 C 119.222656 81.90625 113.523438 84.304688 109.921875 88.804688 C 106.625 93.605469 106.023438 99.605469 108.722656 104.703125 C 136.621094 158.394531 112.921875 215.484375 95.824219 256.578125 C 72.128906 313.269531 70.027344 357.765625 89.527344 387.160156 C 104.523438 409.957031 131.519531 422.257812 166.917969 422.257812 C 190.3125 422.554688 219.410156 422.554688 249.402344 437.253906 C 251.5 438.453125 253.601562 438.753906 256.003906 438.753906 C 258.402344 438.753906 260.503906 438.453125 262.601562 437.253906 C 292.59375 422.554688 321.691406 422.554688 345.089844 422.257812 C 380.484375 422.257812 407.480469 409.957031 422.476562 387.160156 C 441.972656 357.765625 439.875 313.273438 416.175781 256.578125 Z M 416.175781 256.578125 " fill="#eebf00" fill-opacity="1" stroke="none"/><path d="M 422.476562 387.160156 C 407.476562 409.957031 380.484375 422.257812 345.085938 422.257812 C 321.691406 422.554688 292.59375 422.554688 262.597656 437.253906 C 260.5 438.453125 258.398438 438.753906 256 438.753906 L 256 68.410156 C 258.101562 68.410156 260.199219 68.707031 262 69.609375 C 301.292969 87.007812 345.386719 91.503906 387.078125 83.105469 C 392.777344 81.90625 398.476562 84.304688 402.078125 88.804688 C 405.675781 93.605469 405.976562 99.605469 403.277344 104.703125 C 375.378906 158.394531 399.078125 215.484375 416.175781 256.578125 C 439.875 313.273438 441.972656 357.765625 422.476562 387.160156 Z M 422.476562 387.160156 " fill="#dc9e00" fill-opacity="1" stroke="none"/><path d="M 349.585938 222.6875 C 347.785156 217.285156 342.988281 213.089844 337.289062 212.488281 L 290.496094 205.289062 L 269.800781 162.695312 C 267.097656 157.59375 262 154.296875 256.300781 154.296875 L 256 154.296875 C 250.300781 154.296875 245.203125 157.59375 242.804688 162.695312 L 221.503906 205.289062 L 174.710938 211.886719 C 169.011719 212.785156 164.214844 216.6875 162.414062 222.085938 C 160.613281 227.484375 162.113281 233.484375 166.3125 237.382812 L 200.210938 270.679688 L 192.109375 317.171875 C 190.910156 322.871094 193.308594 328.570312 197.808594 331.871094 C 202.605469 335.46875 208.605469 335.769531 213.707031 333.070312 L 255.699219 311.171875 L 256 311.472656 L 297.695312 333.367188 C 302.792969 336.070312 308.792969 335.769531 313.289062 332.46875 C 318.089844 329.171875 320.492188 323.472656 319.289062 317.773438 L 311.492188 270.976562 L 345.6875 237.980469 C 349.886719 234.082031 351.085938 228.085938 349.585938 222.6875 Z M 349.585938 222.6875 " fill="#ffda44" fill-opacity="1" stroke="none"/><path d="M 345.6875 237.984375 L 311.492188 270.980469 L 319.289062 317.773438 C 320.492188 323.472656 318.09375 329.171875 313.292969 332.46875 C 308.792969 335.769531 302.792969 336.070312 297.695312 333.371094 L 256 311.472656 L 256 154.296875 L 256.300781 154.296875 C 262 154.296875 267.097656 157.597656 269.800781 162.695312 L 290.496094 205.289062 L 337.289062 212.488281 C 342.988281 213.089844 347.785156 217.285156 349.585938 222.6875 C 351.085938 228.085938 349.886719 234.082031 345.6875 237.984375 Z M 345.6875 237.984375 " fill="#eebf00" fill-opacity="1" stroke="none"/></g></defs><g fi:class="KUsePattern" opacity="0.35"><pattern id="pattern_L1_1" width="350" height="350" patternUnits="userSpaceOnUse"><use xlink:href="#L1_1" x="-350" y="-350"/><use xlink:href="#L1_1" x="0" y="-350"/><use xlink:href="#L1_1" x="350" y="-350"/><use xlink:href="#L1_1" x="-350" y="0"/><use xlink:href="#L1_1" x="0" y="0"/><use xlink:href="#L1_1" x="350" y="0"/><use xlink:href="#L1_1" x="-350" y="350"/><use xlink:href="#L1_1" x="0" y="350"/><use xlink:href="#L1_1" x="350" y="350"/></pattern><rect x="0" y="0" width="100%" height="100%" fill="url(#pattern_L1_1)"/></g><g fi:class="KUsePattern" opacity="0.35"><pattern id="pattern_L1_5" width="350" height="350" patternUnits="userSpaceOnUse"><use xlink:href="#L1_5" x="-350" y="-350"/><use xlink:href="#L1_5" x="0" y="-350"/><use xlink:href="#L1_5" x="350" y="-350"/><use xlink:href="#L1_5" x="-350" y="0"/><use xlink:href="#L1_5" x="0" y="0"/><use xlink:href="#L1_5" x="350" y="0"/><use xlink:href="#L1_5" x="-350" y="350"/><use xlink:href="#L1_5" x="0" y="350"/><use xlink:href="#L1_5" x="350" y="350"/></pattern><rect x="0" y="0" width="100%" height="100%" fill="url(#pattern_L1_5)"/></g><g fi:class="KUsePattern" opacity="0.35"><pattern id="pattern_L1_7" width="350" height="350" patternUnits="userSpaceOnUse"><use xlink:href="#L1_7" x="-350" y="-350"/><use xlink:href="#L1_7" x="0" y="-350"/><use xlink:href="#L1_7" x="350" y="-350"/><use xlink:href="#L1_7" x="-350" y="0"/><use xlink:href="#L1_7" x="0" y="0"/><use xlink:href="#L1_7" x="350" y="0"/><use xlink:href="#L1_7" x="-350" y="350"/><use xlink:href="#L1_7" x="0" y="350"/><use xlink:href="#L1_7" x="350" y="350"/></pattern><rect x="0" y="0" width="100%" height="100%" fill="url(#pattern_L1_7)"/></g><g fi:class="KUsePattern" opacity="0.35"><pattern id="pattern_L1_8" width="350" height="350" patternUnits="userSpaceOnUse"><use xlink:href="#L1_8" x="-350" y="-350"/><use xlink:href="#L1_8" x="0" y="-350"/><use xlink:href="#L1_8" x="350" y="-350"/><use xlink:href="#L1_8" x="-350" y="0"/><use xlink:href="#L1_8" x="0" y="0"/><use xlink:href="#L1_8" x="350" y="0"/><use xlink:href="#L1_8" x="-350" y="350"/><use xlink:href="#L1_8" x="0" y="350"/><use xlink:href="#L1_8" x="350" y="350"/></pattern><rect x="0" y="0" width="100%" height="100%" fill="url(#pattern_L1_8)"/></g></svg>